<svg width="1200" height="760" viewBox="0 0 1200 760" fill="none" xmlns="http://www.w3.org/2000/svg">
  <rect width="1200" height="760" rx="26" fill="#101315"/>
  <rect x="46" y="38" width="1108" height="684" rx="24" fill="#14181B" stroke="#2B3034"/>
  <rect x="46" y="38" width="1108" height="84" rx="24" fill="#191E22"/>
  <circle cx="92" cy="80" r="10" fill="#FB4934"/>
  <circle cx="126" cy="80" r="10" fill="#FABD2F"/>
  <circle cx="160" cy="80" r="10" fill="#B8BB26"/>
  <rect x="92" y="166" width="760" height="510" rx="24" fill="#0E1317"/>
  <path d="M132 514C242 438 334 416 432 444C552 478 622 480 738 430C778 414 810 396 852 374V676H132V514Z" fill="#16323A"/>
  <path d="M132 566C246 504 336 518 436 556C530 592 646 596 760 542C792 528 824 510 852 490V676H132V566Z" fill="#23515F"/>
  <circle cx="260" cy="380" r="16" fill="#8EC07C"/>
  <circle cx="260" cy="380" r="34" fill="#8EC07C" fill-opacity="0.16"/>
  <circle cx="450" cy="320" r="16" fill="#83A598"/>
  <circle cx="450" cy="320" r="34" fill="#83A598" fill-opacity="0.18"/>
  <circle cx="610" cy="500" r="16" fill="#FABD2F"/>
  <circle cx="610" cy="500" r="34" fill="#FABD2F" fill-opacity="0.16"/>
  <rect x="888" y="166" width="216" height="218" rx="24" fill="#101417"/>
  <rect x="888" y="420" width="216" height="256" rx="24" fill="#101417"/>
</svg>
